ffmpeg started on 2016-12-02 at 22:14:51
Report written to "Output/x264/results/ffmpeg/old_town_cross_2160p50veryslow13000k.log"
Command line:
Tools/ffmpeg/ffmpeg -benchmark -y -i Input/y4m/old_town_cross_2160p50.y4m -c:v libx264 -preset veryslow -b:v 13000k -an Output/x264/encoded/old_town_cross_2160p50veryslow13000k.mkv
ffmpeg version N-82227-gdb23fde Copyright (c) 2000-2016 the FFmpeg developers
  built with gcc 5.4.0 (Ubuntu 5.4.0-6ubuntu1~16.04.2) 20160609
  configuration: --prefix=/home/jaroslav/ffmpeg_build --pkg-config-flags=--static --extra-cflags=-I/home/jaroslav/ffmpeg_build/include --extra-ldflags=-L/home/jaroslav/ffmpeg_build/lib --bindir=/home/jaroslav/bin --enable-gpl --enable-libass --enable-libfdk-aac --enable-libfreetype --enable-libmp3lame --enable-libopus --enable-libtheora --enable-libvorbis --enable-libvpx --enable-libx264 --enable-libx265 --enable-nvenc --enable-libmfx --enable-libxvid --enable-libgsm --enable-libopencore-amrnb --enable-version3 --enable-nonfree
  libavutil      55. 35.100 / 55. 35.100
  libavcodec     57. 66.101 / 57. 66.101
  libavformat    57. 57.100 / 57. 57.100
  libavdevice    57.  2.100 / 57.  2.100
  libavfilter     6. 66.100 /  6. 66.100
  libswscale      4.  3.100 /  4.  3.100
  libswresample   2.  4.100 /  2.  4.100
  libpostproc    54.  2.100 / 54.  2.100
Input #0, yuv4mpegpipe, from 'Input/y4m/old_town_cross_2160p50.y4m':
  Duration: 00:00:10.00, start: 0.000000, bitrate: 4976642 kb/s
    Stream #0:0: Video: rawvideo (I420 / 0x30323449), yuv420p(progressive), 3840x2160, SAR 1:1 DAR 16:9, 50 fps, 50 tbr, 50 tbn, 50 tbc
[libx264 @ 0x3774120] using SAR=1/1
[libx264 @ 0x3774120] DPB size (16 frames, 518400 mbs) > level limit (5 frames, 184320 mbs)
[libx264 @ 0x3774120] using cpu capabilities: MMX2 SSE2Fast SSSE3 SSE4.2 AVX FMA3 AVX2 LZCNT BMI2
[libx264 @ 0x3774120] profile High, level 5.2
[libx264 @ 0x3774120] 264 - core 148 - H.264/MPEG-4 AVC codec - Copyleft 2003-2016 - http://www.videolan.org/x264.html - options: cabac=1 ref=16 deblock=1:0:0 analyse=0x3:0x133 me=umh subme=10 psy=1 psy_rd=1.00:0.00 mixed_ref=1 me_range=24 chroma_me=1 trellis=2 8x8dct=1 cqm=0 deadzone=21,11 fast_pskip=1 chroma_qp_offset=-2 threads=6 lookahead_threads=1 sliced_threads=0 nr=0 decimate=1 interlaced=0 bluray_compat=0 constrained_intra=0 bframes=8 b_pyramid=2 b_adapt=2 b_bias=0 direct=3 weightb=1 open_gop=0 weightp=2 keyint=250 keyint_min=25 scenecut=40 intra_refresh=0 rc_lookahead=60 rc=abr mbtree=1 bitrate=13000 ratetol=1.0 qcomp=0.60 qpmin=0 qpmax=69 qpstep=4 ip_ratio=1.40 aq=1:1.00
Output #0, matroska, to 'Output/x264/encoded/old_town_cross_2160p50veryslow13000k.mkv':
  Metadata:
    encoder         : Lavf57.57.100
    Stream #0:0: Video: h264 (libx264) (H264 / 0x34363248), yuv420p, 3840x2160 [SAR 1:1 DAR 16:9], q=-1--1, 13000 kb/s, 50 fps, 1k tbn, 50 tbc
    Metadata:
      encoder         : Lavc57.66.101 libx264
    Side data:
      cpb: bitrate max/min/avg: 0/0/13000000 buffer size: 0 vbv_delay: -1
Stream mapping:
  Stream #0:0 -> #0:0 (rawvideo (native) -> h264 (libx264))
Press [q] to stop, [?] for help
frame=   60 fps=0.0 q=0.0 size=       0kB time=00:00:00.00 bitrate=N/A speed=   0x    frame=   72 fps=8.0 q=0.0 size=       0kB time=00:00:00.00 bitrate=N/A speed=   0x    frame=   77 fps=6.1 q=31.0 size=       1kB time=-00:00:00.01 bitrate=N/A speed=N/A    frame=   78 fps=5.7 q=31.0 size=       1kB time=00:00:00.00 bitrate=5888.0kbits/s speed=7.35e-05x    frame=   80 fps=5.6 q=31.0 size=       1kB time=00:00:00.04 bitrate= 143.6kbits/s speed=0.00287x    frame=   84 fps=5.0 q=33.0 size=       1kB time=00:00:00.12 bitrate=  48.7kbits/s speed=0.00727x    frame=   85 fps=4.9 q=34.0 size=       1kB time=00:00:00.14 bitrate=  41.8kbits/s speed=0.00819x    frame=   90 fps=4.8 q=47.0 size=       1kB time=00:00:00.24 bitrate=  24.4kbits/s speed=0.0129x    frame=   97 fps=4.8 q=46.0 size=       1kB time=00:00:00.38 bitrate=  15.5kbits/s speed=0.0187x    frame=  100 fps=4.6 q=45.0 size=       1kB time=00:00:00.44 bitrate=  13.4kbits/s speed=0.0204x    frame=  105 fps=4.6 q=45.0 size=       1kB time=00:00:00.54 bitrate=  10.9kbits/s speed=0.0239x    frame=  106 fps=4.5 q=44.0 size=       1kB time=00:00:00.56 bitrate=  10.5kbits/s speed=0.024x    frame=  108 fps=4.4 q=43.0 size=       1kB time=00:00:00.60 bitrate=   9.8kbits/s speed=0.0248x    frame=  113 fps=4.4 q=42.0 size=       1kB time=00:00:00.70 bitrate=   8.4kbits/s speed=0.0273x    frame=  114 fps=4.3 q=42.0 size=       1kB time=00:00:00.72 bitrate=   8.2kbits/s speed=0.0272x    frame=  117 fps=4.3 q=41.0 size=       1kB time=00:00:00.78 bitrate=   7.5kbits/s speed=0.0286x    frame=  120 fps=4.3 q=41.0 size=       1kB time=00:00:00.84 bitrate=   7.0kbits/s speed=0.0298x    frame=  121 fps=4.2 q=41.0 size=       1kB time=00:00:00.86 bitrate=   6.8kbits/s speed=0.0299x    frame=  122 fps=4.1 q=41.0 size=       1kB time=00:00:00.88 bitrate=   6.7kbits/s speed=0.0299x    frame=  123 fps=4.0 q=40.0 size=       1kB time=00:00:00.90 bitrate=   6.5kbits/s speed=0.0293x    frame=  128 fps=4.0 q=40.0 size=       1kB time=00:00:01.00 bitrate=   5.9kbits/s speed=0.0314x    frame=  129 fps=3.9 q=40.0 size=       1kB time=00:00:01.02 bitrate=   5.8kbits/s speed=0.0307x    frame=  131 fps=3.8 q=39.0 size=       1kB time=00:00:01.06 bitrate=   5.5kbits/s speed=0.0311x    frame=  132 fps=3.8 q=39.0 size=       1kB time=00:00:01.08 bitrate=   5.4kbits/s speed=0.0309x    frame=  135 fps=3.7 q=39.0 size=       1kB time=00:00:01.14 bitrate=   5.2kbits/s speed=0.0316x    frame=  137 fps=3.7 q=38.0 size=       1kB time=00:00:01.18 bitrate=   5.0kbits/s speed=0.0316x    frame=  138 fps=3.6 q=38.0 size=       1kB time=00:00:01.20 bitrate=   4.9kbits/s speed=0.0317x    frame=  139 fps=3.6 q=38.0 size=       1kB time=00:00:01.22 bitrate=   4.8kbits/s speed=0.0316x    frame=  140 fps=3.5 q=38.0 size=       1kB time=00:00:01.24 bitrate=   4.7kbits/s speed=0.0313x    frame=  143 fps=3.5 q=37.0 size=       1kB time=00:00:01.30 bitrate=   4.5kbits/s speed=0.0322x    frame=  144 fps=3.5 q=38.0 size=       1kB time=00:00:01.32 bitrate=   4.5kbits/s speed=0.032x    frame=  146 fps=3.4 q=37.0 size=       1kB time=00:00:01.36 bitrate=   4.3kbits/s speed=0.0316x    frame=  148 fps=3.4 q=37.0 size=       1kB time=00:00:01.40 bitrate=   4.2kbits/s speed=0.0317x    frame=  149 fps=3.3 q=37.0 size=       1kB time=00:00:01.42 bitrate=   4.1kbits/s speed=0.0318x    frame=  152 fps=3.3 q=37.0 size=       1kB time=00:00:01.48 bitrate=   4.0kbits/s speed=0.0323x    frame=  154 fps=3.3 q=37.0 size=       1kB time=00:00:01.52 bitrate=   3.9kbits/s speed=0.0322x    frame=  155 fps=3.2 q=37.0 size=       1kB time=00:00:01.54 bitrate=   3.8kbits/s speed=0.0317x    frame=  157 fps=3.2 q=36.0 size=       1kB time=00:00:01.58 bitrate=   3.7kbits/s speed=0.0322x    frame=  158 fps=3.2 q=36.0 size=       1kB time=00:00:01.60 bitrate=   3.7kbits/s speed=0.0321x    frame=  161 fps=3.1 q=36.0 size=       1kB time=00:00:01.66 bitrate=   3.5kbits/s speed=0.0319x    frame=  163 fps=3.1 q=36.0 size=       1kB time=00:00:01.70 bitrate=   3.5kbits/s speed=0.032x    frame=  165 fps=3.1 q=36.0 size=       1kB time=00:00:01.74 bitrate=   3.4kbits/s speed=0.0323x    frame=  166 fps=3.0 q=36.0 size=       1kB time=00:00:01.76 bitrate=   3.3kbits/s speed=0.0323x    frame=  167 fps=3.0 q=36.0 size=       1kB time=00:00:01.78 bitrate=   3.3kbits/s speed=0.0319x    frame=  171 fps=3.0 q=35.0 size=       1kB time=00:00:01.86 bitrate=   3.2kbits/s speed=0.0328x    frame=  172 fps=3.0 q=35.0 size=       1kB time=00:00:01.88 bitrate=   3.1kbits/s speed=0.0326x    frame=  173 fps=2.9 q=35.0 size=       1kB time=00:00:01.90 bitrate=   3.1kbits/s speed=0.032x    frame=  175 fps=2.9 q=35.0 size=       1kB time=00:00:01.94 bitrate=   3.0kbits/s speed=0.0319x    frame=  176 fps=2.9 q=35.0 size=       1kB time=00:00:01.96 bitrate=   3.0kbits/s speed=0.032x    frame=  179 fps=2.9 q=35.0 size=       1kB time=00:00:02.02 bitrate=   2.9kbits/s speed=0.0326x    frame=  181 fps=2.8 q=35.0 size=       1kB time=00:00:02.06 bitrate=   2.9kbits/s speed=0.032x    frame=  182 fps=2.8 q=35.0 size=       1kB time=00:00:02.08 bitrate=   2.8kbits/s speed=0.032x    frame=  183 fps=2.8 q=35.0 size=       1kB time=00:00:02.10 bitrate=   2.8kbits/s speed=0.032x    frame=  184 fps=2.8 q=35.0 size=       1kB time=00:00:02.12 bitrate=   2.8kbits/s speed=0.0319x    frame=  186 fps=2.8 q=35.0 size=       1kB time=00:00:02.16 bitrate=   2.7kbits/s speed=0.0321x    frame=  188 fps=2.7 q=34.0 size=       1kB time=00:00:02.20 bitrate=   2.7kbits/s speed=0.0321x    frame=  190 fps=2.7 q=35.0 size=       1kB time=00:00:02.24 bitrate=   2.6kbits/s speed=0.0318x    frame=  192 fps=2.7 q=34.0 size=       1kB time=00:00:02.28 bitrate=   2.6kbits/s speed=0.0321x    frame=  193 fps=2.7 q=34.0 size=       1kB time=00:00:02.30 bitrate=   2.6kbits/s speed=0.0317x    frame=  194 fps=2.7 q=34.0 size=       1kB time=00:00:02.32 bitrate=   2.5kbits/s speed=0.0317x    frame=  195 fps=2.6 q=34.0 size=       1kB time=00:00:02.34 bitrate=   2.5kbits/s speed=0.0317x    frame=  199 fps=2.6 q=34.0 size=       1kB time=00:00:02.42 bitrate=   2.4kbits/s speed=0.0318x    frame=  201 fps=2.6 q=34.0 size=       1kB time=00:00:02.46 bitrate=   2.4kbits/s speed=0.0319x    frame=  202 fps=2.6 q=34.0 size=       1kB time=00:00:02.48 bitrate=   2.4kbits/s speed=0.0316x    frame=  204 fps=2.6 q=34.0 size=       1kB time=00:00:02.52 bitrate=   2.3kbits/s speed=0.0319x    frame=  207 fps=2.6 q=34.0 size=       1kB time=00:00:02.58 bitrate=   2.3kbits/s speed=0.032x    frame=  208 fps=2.5 q=34.0 size=       1kB time=00:00:02.60 bitrate=   2.3kbits/s speed=0.0318x    frame=  209 fps=2.5 q=34.0 size=       1kB time=00:00:02.62 bitrate=   2.2kbits/s speed=0.0313x    frame=  211 fps=2.5 q=34.0 size=       1kB time=00:00:02.66 bitrate=   2.2kbits/s speed=0.0315x    frame=  215 fps=2.5 q=34.0 size=       1kB time=00:00:02.74 bitrate=   2.1kbits/s speed=0.0315x    frame=  216 fps=2.5 q=34.0 size=       1kB time=00:00:02.76 bitrate=   2.1kbits/s speed=0.0314x    frame=  218 fps=2.4 q=34.0 size=       1kB time=00:00:02.80 bitrate=   2.1kbits/s speed=0.0314x    frame=  219 fps=2.4 q=34.0 size=       1kB time=00:00:02.82 bitrate=   2.1kbits/s speed=0.0314x    frame=  222 fps=2.4 q=33.0 size=       1kB time=00:00:02.88 bitrate=   2.0kbits/s speed=0.0316x    frame=  224 fps=2.4 q=33.0 size=       1kB time=00:00:02.92 bitrate=   2.0kbits/s speed=0.0312x    frame=  225 fps=2.4 q=33.0 size=       1kB time=00:00:02.94 bitrate=   2.0kbits/s speed=0.0312x    frame=  228 fps=2.4 q=33.0 size=       1kB time=00:00:03.00 bitrate=   2.0kbits/s speed=0.0315x    frame=  230 fps=2.4 q=33.0 size=       1kB time=00:00:03.04 bitrate=   1.9kbits/s speed=0.0313x    frame=  231 fps=2.4 q=33.0 size=       1kB time=00:00:03.06 bitrate=   1.9kbits/s speed=0.0312x    frame=  233 fps=2.3 q=33.0 size=       1kB time=00:00:03.10 bitrate=   1.9kbits/s speed=0.0312x    frame=  234 fps=2.3 q=33.0 size=       1kB time=00:00:03.12 bitrate=   1.9kbits/s speed=0.0312x    frame=  237 fps=2.3 q=33.0 size=       1kB time=00:00:03.18 bitrate=   1.9kbits/s speed=0.0312x    frame=  239 fps=2.3 q=33.0 size=       1kB time=00:00:03.22 bitrate=   1.8kbits/s speed=0.0311x    frame=  240 fps=2.3 q=33.0 size=       1kB time=00:00:03.24 bitrate=   1.8kbits/s speed=0.031x    frame=  245 fps=2.3 q=33.0 size=       1kB time=00:00:03.34 bitrate=   1.8kbits/s speed=0.0316x    frame=  246 fps=2.3 q=33.0 size=       1kB time=00:00:03.36 bitrate=   1.8kbits/s speed=0.0313x    frame=  247 fps=2.3 q=33.0 size=       1kB time=00:00:03.38 bitrate=   1.7kbits/s speed=0.0309x    frame=  249 fps=2.3 q=33.0 size=       1kB time=00:00:03.42 bitrate=   1.7kbits/s speed=0.0311x    frame=  251 fps=2.3 q=33.0 size=    5201kB time=00:00:03.46 bitrate=12310.1kbits/s speed=0.0311x    frame=  252 fps=2.2 q=33.0 size=    5201kB time=00:00:03.48 bitrate=12239.4kbits/s speed=0.0311x    frame=  254 fps=2.3 q=33.0 size=    5201kB time=00:00:03.52 bitrate=12100.4kbits/s speed=0.0312x    frame=  255 fps=2.2 q=33.0 size=    5201kB time=00:00:03.54 bitrate=12032.0kbits/s speed=0.0311x    frame=  257 fps=2.2 q=33.0 size=    5201kB time=00:00:03.58 bitrate=11897.6kbits/s speed=0.0312x    frame=  258 fps=2.2 q=33.0 size=    5201kB time=00:00:03.60 bitrate=11831.5kbits/s speed=0.0311x    frame=  260 fps=2.2 q=33.0 size=    5201kB time=00:00:03.64 bitrate=11701.6kbits/s speed=0.0309x    frame=  262 fps=2.2 q=33.0 size=    5201kB time=00:00:03.68 bitrate=11574.4kbits/s speed=0.031x    frame=  266 fps=2.2 q=33.0 size=    5201kB time=00:00:03.76 bitrate=11328.2kbits/s speed=0.031x    frame=  267 fps=2.2 q=33.0 size=    5201kB time=00:00:03.78 bitrate=11268.3kbits/s speed=0.031x    frame=  269 fps=2.2 q=33.0 size=    5201kB time=00:00:03.82 bitrate=11150.3kbits/s speed=0.0308x    frame=  271 fps=2.2 q=33.0 size=    5201kB time=00:00:03.86 bitrate=11034.8kbits/s speed=0.0309x    frame=  275 fps=2.2 q=33.0 size=    5201kB time=00:00:03.94 bitrate=10810.8kbits/s speed=0.0309x    frame=  277 fps=2.2 q=33.0 size=    5201kB time=00:00:03.98 bitrate=10702.2kbits/s speed=0.0311x    frame=  278 fps=2.1 q=33.0 size=    5201kB time=00:00:04.00 bitrate=10648.7kbits/s speed=0.0309x    frame=  279 fps=2.1 q=33.0 size=    5201kB time=00:00:04.02 bitrate=10595.7kbits/s speed=0.0309x    frame=  281 fps=2.2 q=33.0 size=    5201kB time=00:00:04.06 bitrate=10491.4kbits/s speed=0.0311x    frame=  282 fps=2.1 q=33.0 size=    5201kB time=00:00:04.08 bitrate=10439.9kbits/s speed=0.031x    frame=  284 fps=2.1 q=33.0 size=    5201kB time=00:00:04.12 bitrate=10338.6kbits/s speed=0.0311x    frame=  285 fps=2.1 q=33.0 size=    5201kB time=00:00:04.14 bitrate=10288.7kbits/s speed=0.0309x    frame=  287 fps=2.1 q=33.0 size=    5201kB time=00:00:04.18 bitrate=10190.2kbits/s speed=0.031x    frame=  288 fps=2.1 q=33.0 size=    5201kB time=00:00:04.20 bitrate=10141.7kbits/s speed=0.0309x    frame=  289 fps=2.1 q=33.0 size=    5201kB time=00:00:04.22 bitrate=10093.7kbits/s speed=0.0309x    frame=  291 fps=2.1 q=33.0 size=    5201kB time=00:00:04.26 bitrate=9998.9kbits/s speed=0.031x    frame=  293 fps=2.1 q=33.0 size=    5201kB time=00:00:04.30 bitrate=9905.9kbits/s speed=0.0311x    frame=  294 fps=2.1 q=33.0 size=    5201kB time=00:00:04.32 bitrate=9860.1kbits/s speed=0.031x    frame=  295 fps=2.1 q=33.0 size=    5201kB time=00:00:04.34 bitrate=9814.6kbits/s speed=0.0308x    frame=  297 fps=2.1 q=33.0 size=    5201kB time=00:00:04.38 bitrate=9725.0kbits/s speed=0.0308x    frame=  301 fps=2.1 q=33.0 size=    5201kB time=00:00:04.46 bitrate=9550.6kbits/s speed=0.031x    frame=  303 fps=2.1 q=33.0 size=    5201kB time=00:00:04.50 bitrate=9465.8kbits/s speed=0.0307x    frame=  305 fps=2.1 q=33.0 size=    5201kB time=00:00:04.54 bitrate=9382.4kbits/s speed=0.0307x    frame=  309 fps=2.1 q=33.0 size=    5201kB time=00:00:04.62 bitrate=9219.9kbits/s speed=0.0308x    frame=  310 fps=2.0 q=33.0 size=    5201kB time=00:00:04.64 bitrate=9180.2kbits/s speed=0.0306x    frame=  312 fps=2.0 q=33.0 size=    5201kB time=00:00:04.68 bitrate=9101.8kbits/s speed=0.0307x    frame=  313 fps=2.0 q=33.0 size=    5201kB time=00:00:04.70 bitrate=9063.0kbits/s speed=0.0303x    frame=  318 fps=2.0 q=33.0 size=    5201kB time=00:00:04.80 bitrate=8874.3kbits/s speed=0.0302x    frame=  320 fps=2.0 q=30.0 size=    5201kB time=00:00:04.84 bitrate=8800.9kbits/s speed=0.0304x    frame=  324 fps=2.0 q=34.0 size=    5201kB time=00:00:04.92 bitrate=8657.9kbits/s speed=0.0305x    frame=  326 fps=2.0 q=34.0 size=    7236kB time=00:00:04.96 bitrate=11948.0kbits/s speed=0.0304x    frame=  329 fps=2.0 q=34.0 size=    7236kB time=00:00:05.02 bitrate=11805.3kbits/s speed=0.0307x    frame=  332 fps=2.0 q=34.0 size=    7236kB time=00:00:05.08 bitrate=11665.9kbits/s speed=0.0309x    frame=  334 fps=2.0 q=34.0 size=    7236kB time=00:00:05.12 bitrate=11574.7kbits/s speed=0.031x    frame=  336 fps=2.0 q=34.0 size=    7236kB time=00:00:05.16 bitrate=11485.0kbits/s speed=0.0309x    frame=  340 fps=2.0 q=34.0 size=    7236kB time=00:00:05.24 bitrate=11309.7kbits/s speed=0.0313x    frame=  342 fps=2.0 q=34.0 size=    7236kB time=00:00:05.28 bitrate=11224.1kbits/s speed=0.0313x    frame=  344 fps=2.0 q=34.0 size=    7236kB time=00:00:05.32 bitrate=11139.7kbits/s speed=0.0314x    frame=  345 fps=2.0 q=34.0 size=    7236kB time=00:00:05.34 bitrate=11098.0kbits/s speed=0.0313x    frame=  347 fps=2.0 q=34.0 size=    7236kB time=00:00:05.38 bitrate=11015.5kbits/s speed=0.0314x    frame=  351 fps=2.0 q=34.0 size=    7236kB time=00:00:05.46 bitrate=10854.1kbits/s speed=0.0316x    frame=  352 fps=2.0 q=34.0 size=    7236kB time=00:00:05.48 bitrate=10814.5kbits/s speed=0.0316x    frame=  354 fps=2.0 q=34.0 size=    7236kB time=00:00:05.52 bitrate=10736.1kbits/s speed=0.0315x    frame=  357 fps=2.0 q=34.0 size=    7236kB time=00:00:05.58 bitrate=10620.7kbits/s speed=0.0317x    frame=  360 fps=2.0 q=34.0 size=    7236kB time=00:00:05.64 bitrate=10507.7kbits/s speed=0.0317x    frame=  363 fps=2.0 q=34.0 size=    7236kB time=00:00:05.70 bitrate=10397.2kbits/s speed=0.0316x    frame=  365 fps=2.0 q=34.0 size=    7236kB time=00:00:05.74 bitrate=10324.7kbits/s speed=0.0317x    frame=  369 fps=2.0 q=34.0 size=    7236kB time=00:00:05.82 bitrate=10182.8kbits/s speed=0.0319x    frame=  372 fps=2.0 q=34.0 size=    7236kB time=00:00:05.88 bitrate=10078.9kbits/s speed=0.0317x    frame=  374 fps=2.0 q=34.0 size=    7236kB time=00:00:05.92 bitrate=10010.8kbits/s speed=0.0318x    frame=  377 fps=2.0 q=34.0 size=    7236kB time=00:00:05.98 bitrate=9910.4kbits/s speed=0.0316x    frame=  378 fps=2.0 q=34.0 size=    7236kB time=00:00:06.00 bitrate=9877.4kbits/s speed=0.0316x    frame=  379 fps=2.0 q=34.0 size=    7236kB time=00:00:06.02 bitrate=9844.6kbits/s speed=0.0316x    frame=  383 fps=2.0 q=34.0 size=    7236kB time=00:00:06.10 bitrate=9715.5kbits/s speed=0.0317x    frame=  384 fps=2.0 q=34.0 size=    7236kB time=00:00:06.12 bitrate=9683.7kbits/s speed=0.0317x    frame=  386 fps=2.0 q=34.0 size=    7236kB time=00:00:06.16 bitrate=9620.9kbits/s speed=0.0317x    frame=  387 fps=2.0 q=34.0 size=    7236kB time=00:00:06.18 bitrate=9589.7kbits/s speed=0.0317x    frame=  389 fps=2.0 q=34.0 size=    7236kB time=00:00:06.22 bitrate=9528.1kbits/s speed=0.0317x    frame=  390 fps=2.0 q=34.0 size=    7236kB time=00:00:06.24 bitrate=9497.6kbits/s speed=0.0317x    frame=  391 fps=2.0 q=34.0 size=    7236kB time=00:00:06.26 bitrate=9467.2kbits/s speed=0.0315x    frame=  393 fps=2.0 q=34.0 size=    7236kB time=00:00:06.30 bitrate=9407.1kbits/s speed=0.0316x    frame=  396 fps=2.0 q=34.0 size=    7236kB time=00:00:06.36 bitrate=9318.4kbits/s speed=0.0318x    frame=  397 fps=2.0 q=34.0 size=    7236kB time=00:00:06.38 bitrate=9289.2kbits/s speed=0.0316x    frame=  398 fps=2.0 q=34.0 size=    7236kB time=00:00:06.40 bitrate=9260.1kbits/s speed=0.0316x    frame=  400 fps=2.0 q=34.0 size=    7236kB time=00:00:06.44 bitrate=9202.6kbits/s speed=0.0315x    frame=  401 fps=2.0 q=34.0 size=    7236kB time=00:00:06.46 bitrate=9174.2kbits/s speed=0.0315x    frame=  404 fps=2.0 q=34.0 size=    7236kB time=00:00:06.52 bitrate=9089.7kbits/s speed=0.0317x    frame=  406 fps=2.0 q=34.0 size=    7236kB time=00:00:06.56 bitrate=9034.3kbits/s speed=0.0315x    frame=  407 fps=1.9 q=34.0 size=    7236kB time=00:00:06.58 bitrate=9006.9kbits/s speed=0.0315x    frame=  409 fps=1.9 q=34.0 size=    7236kB time=00:00:06.62 bitrate=8952.5kbits/s speed=0.0314x    frame=  410 fps=1.9 q=34.0 size=    7236kB time=00:00:06.64 bitrate=8925.5kbits/s speed=0.0314x    frame=  415 fps=1.9 q=34.0 size=    7236kB time=00:00:06.74 bitrate=8793.1kbits/s speed=0.0315x    frame=  416 fps=1.9 q=34.0 size=    7236kB time=00:00:06.76 bitrate=8767.1kbits/s speed=0.0315x    frame=  417 fps=1.9 q=33.0 size=    7236kB time=00:00:06.78 bitrate=8741.2kbits/s speed=0.0315x    frame=  418 fps=1.9 q=33.0 size=    7236kB time=00:00:06.80 bitrate=8715.5kbits/s speed=0.0313x    frame=  420 fps=1.9 q=33.0 size=    7236kB time=00:00:06.84 bitrate=8664.6kbits/s speed=0.0314x    frame=  424 fps=1.9 q=33.0 size=    7236kB time=00:00:06.92 bitrate=8564.4kbits/s speed=0.0314x    frame=  425 fps=1.9 q=33.0 size=    7236kB time=00:00:06.94 bitrate=8539.7kbits/s speed=0.0314x    frame=  427 fps=1.9 q=33.0 size=    7236kB time=00:00:06.98 bitrate=8490.8kbits/s speed=0.0313x    frame=  429 fps=1.9 q=33.0 size=    7236kB time=00:00:07.02 bitrate=8442.4kbits/s speed=0.0313x    frame=  433 fps=1.9 q=33.0 size=    7236kB time=00:00:07.10 bitrate=8347.3kbits/s speed=0.0314x    frame=  434 fps=1.9 q=33.0 size=    7236kB time=00:00:07.12 bitrate=8323.9kbits/s speed=0.0313x    frame=  436 fps=1.9 q=33.0 size=    7236kB time=00:00:07.16 bitrate=8277.4kbits/s speed=0.0312x    frame=  438 fps=1.9 q=33.0 size=    7236kB time=00:00:07.20 bitrate=8231.4kbits/s speed=0.0313x    frame=  442 fps=1.9 q=33.0 size=    7236kB time=00:00:07.28 bitrate=8140.9kbits/s speed=0.0312x    frame=  444 fps=1.9 q=33.0 size=    7236kB time=00:00:07.32 bitrate=8096.5kbits/s speed=0.0313x    frame=  445 fps=1.9 q=33.0 size=    7236kB time=00:00:07.34 bitrate=8074.4kbits/s speed=0.0312x    frame=  447 fps=1.9 q=33.0 size=    7236kB time=00:00:07.38 bitrate=8030.6kbits/s speed=0.0312x    frame=  450 fps=1.9 q=33.0 size=    7236kB time=00:00:07.44 bitrate=7965.9kbits/s speed=0.0314x    frame=  451 fps=1.9 q=33.0 size=    7236kB time=00:00:07.46 bitrate=7944.5kbits/s speed=0.0312x    frame=  452 fps=1.9 q=33.0 size=    7236kB time=00:00:07.48 bitrate=7923.3kbits/s speed=0.0311x    frame=  454 fps=1.9 q=33.0 size=    7236kB time=00:00:07.52 bitrate=7881.2kbits/s speed=0.0312x    frame=  457 fps=1.9 q=33.0 size=    7236kB time=00:00:07.58 bitrate=7818.8kbits/s speed=0.0311x    frame=  459 fps=1.9 q=33.0 size=    7236kB time=00:00:07.62 bitrate=7777.7kbits/s speed=0.0311x    frame=  463 fps=1.9 q=33.0 size=    7236kB time=00:00:07.70 bitrate=7697.0kbits/s speed=0.031x    frame=  465 fps=1.9 q=33.0 size=    7236kB time=00:00:07.74 bitrate=7657.2kbits/s speed=0.031x    frame=  469 fps=1.9 q=33.0 size=    7236kB time=00:00:07.82 bitrate=7578.9kbits/s speed=0.0311x    frame=  472 fps=1.9 q=33.0 size=    7236kB time=00:00:07.88 bitrate=7521.2kbits/s speed=0.031x    frame=  474 fps=1.9 q=33.0 size=   12362kB time=00:00:07.92 bitrate=12785.2kbits/s speed=0.0311x    frame=  478 fps=1.9 q=33.0 size=   12362kB time=00:00:08.00 bitrate=12657.4kbits/s speed=0.0311x    frame=  479 fps=1.8 q=33.0 size=   12362kB time=00:00:08.02 bitrate=12625.8kbits/s speed=0.0309x    frame=  481 fps=1.9 q=33.0 size=   12362kB time=00:00:08.06 bitrate=12563.2kbits/s speed=0.031x    frame=  485 fps=1.8 q=33.0 size=   12362kB time=00:00:08.14 bitrate=12439.7kbits/s speed=0.031x    frame=  488 fps=1.8 q=33.0 size=   12362kB time=00:00:08.20 bitrate=12348.7kbits/s speed=0.0309x    frame=  490 fps=1.8 q=33.0 size=   12362kB time=00:00:08.24 bitrate=12288.8kbits/s speed=0.031x    frame=  494 fps=1.8 q=33.0 size=   12362kB time=00:00:08.32 bitrate=12170.6kbits/s speed=0.0311x    frame=  495 fps=1.8 q=33.0 size=   12362kB time=00:00:08.34 bitrate=12141.4kbits/s speed=0.0309x    frame=  497 fps=1.8 q=33.0 size=   12362kB time=00:00:08.38 bitrate=12083.5kbits/s speed=0.031x    frame=  500 fps=1.8 q=33.0 size=   12362kB time=00:00:08.44 bitrate=11997.6kbits/s speed=0.031x    frame=  500 fps=1.6 q=-1.0 Lsize=   15690kB time=00:00:09.94 bitrate=12929.4kbits/s speed=0.0312x    
video:15685kB audio:0kB subtitle:0kB other streams:0kB global headers:0kB muxing overhead: 0.029075%
bench: utime=1220.944s
bench: maxrss=3687592kB
[libx264 @ 0x3774120] frame I:3     Avg QP:28.65  size:786202
[libx264 @ 0x3774120] frame P:63    Avg QP:33.12  size: 95672
[libx264 @ 0x3774120] frame B:434   Avg QP:35.45  size: 17685
[libx264 @ 0x3774120] consecutive B-frames:  0.8%  0.0%  0.0%  1.6%  4.0%  3.6% 11.2% 17.6% 61.2%
[libx264 @ 0x3774120] mb I  I16..4:  8.6% 87.0%  4.3%
[libx264 @ 0x3774120] mb P  I16..4:  0.1%  0.4%  0.0%  P16..4: 48.7%  6.1% 11.4%  0.0%  0.0%    skip:33.3%
[libx264 @ 0x3774120] mb B  I16..4:  0.0%  0.0%  0.0%  B16..8: 48.9%  0.4%  0.1%  direct: 0.2%  skip:50.4%  L0:51.6% L1:48.3% BI: 0.1%
[libx264 @ 0x3774120] final ratefactor: 25.50
[libx264 @ 0x3774120] 8x8 transform intra:86.7% inter:66.4%
[libx264 @ 0x3774120] direct mvs  spatial:99.1% temporal:0.9%
[libx264 @ 0x3774120] coded y,uvDC,uvAC intra: 96.4% 85.6% 71.6% inter: 2.8% 1.9% 0.0%
[libx264 @ 0x3774120] i16 v,h,dc,p: 15% 18% 45% 21%
[libx264 @ 0x3774120] i8 v,h,dc,ddl,ddr,vr,hd,vl,hu:  6%  9%  2% 13% 17% 14% 18% 10% 12%
[libx264 @ 0x3774120] i4 v,h,dc,ddl,ddr,vr,hd,vl,hu:  3%  4%  1% 14% 17% 15% 20% 12% 15%
[libx264 @ 0x3774120] i8c dc,h,v,p: 50% 22% 14% 14%
[libx264 @ 0x3774120] Weighted P-Frames: Y:3.2% UV:1.6%
[libx264 @ 0x3774120] ref P L0: 49.9% 15.8% 17.7%  3.9%  3.6%  2.4%  2.4%  0.7%  0.7%  0.6%  0.6%  0.4%  0.5%  0.4%  0.4%  0.1%
[libx264 @ 0x3774120] ref B L0: 72.5%  8.9%  7.2%  2.3%  2.1%  1.9%  1.8%  0.5%  0.5%  0.5%  0.5%  0.5%  0.4%  0.3%  0.1%
[libx264 @ 0x3774120] ref B L1: 94.3%  5.7%
[libx264 @ 0x3774120] kb/s:12848.87
